<svg width="32" height="32" viewBox="0 0 32 32" fill="none" xmlns="http://www.w3.org/2000/svg">
<path fill-rule="evenodd" clip-rule="evenodd" d="M18.6665 29.3334H13.3332C8.30485 29.3334 5.7907 29.3334 4.2286 27.7713C2.6665 26.2093 2.6665 23.695 2.6665 18.6667V13.3334C2.6665 8.30509 2.6665 5.79095 4.2286 4.22884C5.7907 2.66675 8.31809 2.66675 13.3729 2.66675C14.1809 2.66675 14.8284 2.66675 15.3732 2.68896C15.3553 2.79553 15.3458 2.90425 15.3454 3.01417L15.3332 6.79337C15.333 8.25617 15.3329 9.54893 15.473 10.591C15.6249 11.7205 15.9736 12.8498 16.8953 13.7714C17.8169 14.6931 18.9462 15.0418 20.0757 15.1937C21.1178 15.3338 22.4105 15.3337 23.8733 15.3335H23.9998H29.2764C29.3332 16.0459 29.3332 16.9202 29.3332 18.0839V18.6667C29.3332 23.695 29.3332 26.2093 27.771 27.7713C26.209 29.3334 23.6948 29.3334 18.6665 29.3334ZM6.99984 19.3334C6.99984 18.7811 7.44756 18.3334 7.99984 18.3334H18.6665C19.2188 18.3334 19.6665 18.7811 19.6665 19.3334C19.6665 19.8857 19.2188 20.3334 18.6665 20.3334H7.99984C7.44756 20.3334 6.99984 19.8857 6.99984 19.3334ZM6.99984 24.0001C6.99984 23.4478 7.44756 23.0001 7.99984 23.0001H15.3332C15.8854 23.0001 16.3332 23.4478 16.3332 24.0001C16.3332 24.5523 15.8854 25.0001 15.3332 25.0001H7.99984C7.44756 25.0001 6.99984 24.5523 6.99984 24.0001Z" fill="#B0B7C8"/>
<path d="M25.8024 10.1555L20.524 5.40493C19.0203 4.0515 18.2684 3.37478 17.3458 3.02075L17.3335 6.66674C17.3335 9.80943 17.3335 11.3808 18.3098 12.3571C19.2862 13.3334 20.8575 13.3334 24.0002 13.3334H28.7736C28.2902 12.3944 27.4247 11.6154 25.8024 10.1555Z" fill="#B0B7C8"/>
</svg>
