<svg width="32" height="32" viewBox="0 0 32 32" fill="none" xmlns="http://www.w3.org/2000/svg">
<path d="M29.3332 16.2719V18.3001C29.3332 23.5011 29.3332 26.1018 27.771 27.7175C26.209 29.3334 23.6948 29.3334 18.6665 29.3334H13.3332C8.30485 29.3334 5.7907 29.3334 4.2286 27.7175C2.6665 26.1018 2.6665 23.5011 2.6665 18.3001V16.2719C2.6665 13.2207 2.6665 11.6951 3.35877 10.4304C4.05104 9.16569 5.31577 8.38076 7.84521 6.81092L10.5119 5.15591C13.1857 3.49647 14.5226 2.66675 15.9998 2.66675C17.477 2.66675 18.814 3.49647 21.4878 5.15591L24.1545 6.81091C26.684 8.38076 27.9486 9.16569 28.6409 10.4304" stroke="#E66564" stroke-width="2" stroke-linecap="round"/>
<path d="M20 24H12" stroke="#E66564" stroke-width="2" stroke-linecap="round"/>
</svg>
