<svg width="32" height="32" viewBox="0 0 32 32" fill="none" xmlns="http://www.w3.org/2000/svg">
<path d="M29.3332 16.2717V18.2998C29.3332 23.5009 29.3332 26.1016 27.771 27.7173C26.209 29.3332 23.6948 29.3332 18.6665 29.3332H13.3332C8.30485 29.3332 5.7907 29.3332 4.2286 27.7173C2.6665 26.1016 2.6665 23.5009 2.6665 18.2998V16.2717C2.6665 13.2205 2.6665 11.6949 3.35877 10.4302C4.05104 9.16545 5.31577 8.38052 7.84521 6.81068L10.5119 5.15566C13.1857 3.49622 14.5226 2.6665 15.9998 2.6665C17.477 2.6665 18.814 3.49622 21.4878 5.15566L24.1545 6.81066C26.684 8.38052 27.9486 9.16545 28.6409 10.4302" stroke="#B0B7C8" stroke-width="2" stroke-linecap="round"/>
<path d="M20 24H12" stroke="#B0B7C8" stroke-width="2" stroke-linecap="round"/>
</svg>
