<svg width="32" height="32" viewBox="0 0 32 32" fill="none" xmlns="http://www.w3.org/2000/svg">
<path d="M16 20C18.2092 20 20 18.2092 20 16C20 13.7908 18.2092 12 16 12C13.7908 12 12 13.7908 12 16C12 18.2092 13.7908 20 16 20Z" stroke="#B0B7C8" stroke-width="2" stroke-miterlimit="10" stroke-linecap="round" stroke-linejoin="round"/>
<path d="M2.6665 17.173V14.8264C2.6665 13.4397 3.79984 12.2931 5.19984 12.2931C7.61317 12.2931 8.59984 10.5864 7.3865 8.49309C6.69317 7.29309 7.1065 5.73309 8.31984 5.03975L10.6265 3.71975C11.6798 3.09309 13.0398 3.46642 13.6665 4.51975L13.8132 4.77309C15.0132 6.86642 16.9865 6.86642 18.1998 4.77309L18.3465 4.51975C18.9732 3.46642 20.3332 3.09309 21.3865 3.71975L23.6932 5.03975C24.9065 5.73309 25.3198 7.29309 24.6265 8.49309C23.4132 10.5864 24.3998 12.2931 26.8132 12.2931C28.1998 12.2931 29.3465 13.4264 29.3465 14.8264V17.173C29.3465 18.5597 28.2132 19.7064 26.8132 19.7064C24.3998 19.7064 23.4132 21.413 24.6265 23.5064C25.3198 24.7197 24.9065 26.2664 23.6932 26.9597L21.3865 28.2797C20.3332 28.9064 18.9732 28.533 18.3465 27.4797L18.1998 27.2264C16.9998 25.133 15.0265 25.133 13.8132 27.2264L13.6665 27.4797C13.0398 28.533 11.6798 28.9064 10.6265 28.2797L8.31984 26.9597C7.1065 26.2664 6.69317 24.7064 7.3865 23.5064C8.59984 21.413 7.61317 19.7064 5.19984 19.7064C3.79984 19.7064 2.6665 18.5597 2.6665 17.173Z" stroke="#B0B7C8" stroke-width="2" stroke-miterlimit="10" stroke-linecap="round" stroke-linejoin="round"/>
</svg>
