<svg width="32" height="32" viewBox="0 0 32 32" fill="none" xmlns="http://www.w3.org/2000/svg">
<path d="M16 22.6668V13.3335M16 13.3335L20 17.3335M16 13.3335L12 17.3335" stroke="#E66564" stroke-width="2" stroke-linecap="round" stroke-linejoin="round"/>
<path d="M21.3332 9.3335H15.9998H10.6665" stroke="#E66564" stroke-width="2" stroke-linecap="round"/>
<path d="M2.6665 15.9998C2.6665 9.71444 2.6665 6.57174 4.61913 4.61913C6.57174 2.6665 9.71444 2.6665 15.9998 2.6665C22.2852 2.6665 25.428 2.6665 27.3805 4.61913C29.3332 6.57174 29.3332 9.71444 29.3332 15.9998C29.3332 22.2852 29.3332 25.428 27.3805 27.3805C25.428 29.3332 22.2852 29.3332 15.9998 29.3332C9.71444 29.3332 6.57174 29.3332 4.61913 27.3805C2.6665 25.428 2.6665 22.2852 2.6665 15.9998Z" stroke="#E66564" stroke-width="2"/>
</svg>
