<svg width="32" height="32" viewBox="0 0 32 32" fill="none" xmlns="http://www.w3.org/2000/svg">
<path d="M16 22.6666V13.3333M16 13.3333L20 17.3333M16 13.3333L12 17.3333" stroke="#B0B7C8" stroke-width="2" stroke-linecap="round" stroke-linejoin="round"/>
<path d="M21.3334 9.33325H16.0001H10.6667" stroke="#B0B7C8" stroke-width="2" stroke-linecap="round"/>
<path d="M2.66675 16.0001C2.66675 9.71468 2.66675 6.57199 4.61937 4.61937C6.57199 2.66675 9.71468 2.66675 16.0001 2.66675C22.2854 2.66675 25.4282 2.66675 27.3807 4.61937C29.3334 6.57199 29.3334 9.71468 29.3334 16.0001C29.3334 22.2854 29.3334 25.4282 27.3807 27.3807C25.4282 29.3334 22.2854 29.3334 16.0001 29.3334C9.71468 29.3334 6.57199 29.3334 4.61937 27.3807C2.66675 25.4282 2.66675 22.2854 2.66675 16.0001Z" stroke="#B0B7C8" stroke-width="2"/>
</svg>
