<svg width="24" height="24" viewBox="0 0 24 24" fill="none" xmlns="http://www.w3.org/2000/svg">
<path fill-rule="evenodd" clip-rule="evenodd" d="M11.7143 14.7215C11.7143 15.0041 11.8227 15.2752 12.0155 15.475C12.2084 15.6748 12.4701 15.7871 12.7429 15.7871C13.0157 15.7871 13.2773 15.6748 13.4702 15.475C13.6631 15.2752 13.7714 15.0041 13.7714 14.7215V6.47411L17.7078 10.1823C17.9096 10.3724 18.1762 10.4718 18.4487 10.4584C18.7213 10.445 18.9776 10.32 19.1611 10.1109C19.3447 9.90173 19.4406 9.62562 19.4277 9.34326C19.4148 9.06089 19.2941 8.79542 19.0922 8.60522L13.4351 3.27743C13.2457 3.09892 12.9989 3 12.7429 3C12.4868 3 12.24 3.09892 12.0506 3.27743L6.39349 8.60522C6.29353 8.6994 6.21246 8.81304 6.1549 8.93968C6.09734 9.06631 6.06442 9.20344 6.05803 9.34326C6.05163 9.48307 6.07187 9.62282 6.11761 9.75452C6.16334 9.88623 6.23367 10.0073 6.32457 10.1109C6.41548 10.2144 6.52518 10.2984 6.64741 10.358C6.76965 10.4177 6.90203 10.4518 7.03698 10.4584C7.17194 10.465 7.30684 10.444 7.43397 10.3967C7.56111 10.3493 7.67799 10.2764 7.77794 10.1823L11.7143 6.47411V14.7215ZM5.65086 13.8734C5.49834 13.7533 5.3165 13.6797 5.12581 13.661C4.93513 13.6422 4.74317 13.679 4.57157 13.7672C4.39997 13.8553 4.25554 13.9914 4.15456 14.16C4.05357 14.3286 4.00004 14.5231 4 14.7215V18.8421C4.00074 19.1428 4.06235 19.44 4.18086 19.7145C4.29936 19.989 4.47213 20.2347 4.68799 20.4357C4.90385 20.6367 5.15802 20.7886 5.43407 20.8816C5.71012 20.9745 6.00192 21.0064 6.29063 20.9753C7.75531 20.8187 10.3638 20.5821 12.7429 20.5821C15.197 20.5821 18.1408 20.8336 19.732 20.9902C20.0189 21.0187 20.3084 20.9848 20.5819 20.8907C20.8555 20.7966 21.107 20.6444 21.3205 20.4438C21.534 20.2432 21.7047 19.9986 21.8217 19.7258C21.9387 19.4529 21.9995 19.1577 22 18.8591V14.7215C22 14.4389 21.8916 14.1679 21.6987 13.9681C21.5058 13.7682 21.2442 13.656 20.9714 13.656C20.6986 13.656 20.437 13.7682 20.2441 13.9681C20.0512 14.1679 19.9429 14.4389 19.9429 14.7215V18.8602L5.65086 13.8734ZM5.65086 13.8734L19.9398 18.8634C19.9378 18.8657 19.9353 18.8675 19.9326 18.8687H19.9264C18.3239 18.711 15.2989 18.451 12.7429 18.451C10.2578 18.451 7.56503 18.6961 6.07977 18.8559H6.07051C6.06491 18.8537 6.0602 18.8495 6.05714 18.8442V14.7215C6.05739 14.5573 6.02092 14.3953 5.95061 14.2482C5.8803 14.101 5.77703 13.9727 5.65086 13.8734Z" fill="white"/>
</svg>
